<svg id="Layer_1" data-name="Layer 1" xmlns="http://www.w3.org/2000/svg" viewBox="0 0 1015.4506 1015.4506"><defs><style>.cls-1{fill:#f2f4f8;}</style></defs><title>vinmaker</title><path class="cls-1" d="M407.51462,498.67816H376.35705l-35.00041-100.3503h18.61354l30.75057,93.06571h2.43017l30.75057-93.06571H442.515Z"/><polygon class="cls-1" points="476.516 484.109 511.718 484.109 511.718 412.895 480.157 412.895 480.157 398.328 527.5 398.328 527.5 484.109 560.274 484.109 560.274 498.678 476.516 498.678 476.516 484.109"/><path class="cls-1" d="M505.24543,367.544a14.16245,14.16245,0,1,1,4.1471,10.0131A13.643,13.643,0,0,1,505.24543,367.544Z"/><path class="cls-1" d="M613.68643,498.67816H597.90809V398.32786h15.77834v16.99342h2.43017q9.29985-19.82369,32.37068-19.82467,17.39647,0,27.71582,10.82315t10.31736,32.47145v59.887H670.74213v-56.6487q0-15.78426-7.08109-23.67343-7.086-7.88917-19.22009-7.88917-14.36766,0-22.55911,9.81355-8.19442,9.81552-8.19541,26.19844Z"/><rect class="cls-1" x="384.65125" y="465.24077" width="14.56918" height="126.69696" transform="translate(-216.10773 780.19075) rotate(-75.9232)"/><path class="cls-1" d="M306.25579,659.23553H290.47745v-72.024q0-7.08011-3.23825-11.63322Q284,571.02622,276.91985,571.02622a13.44,13.44,0,0,0-10.82315,4.95715q-4.14907,4.95814-4.1471,15.27452v67.97764H246.16929v-72.834a16.58475,16.58475,0,0,0-3.64329-11.02666,12.02147,12.02147,0,0,0-9.70883-4.34862q-7.28459,0-11.23016,5.25944-3.94458,5.26339-3.9436,13.75715v69.19272H201.86113V558.88721h15.78228v10.92392h2.42622q2.62578-7.07714,7.68962-10.41813a21.15059,21.15059,0,0,1,11.93551-3.339,18.55006,18.55006,0,0,1,12.03824,3.84481,19.719,19.719,0,0,1,6.57529,9.91234h2.42622Q267.61012,556.057,282.5863,556.054q11.327,0,17.5012,7.18185,6.1673,7.18383,6.16829,18.71431Z"/><path class="cls-1" d="M376.359,558.88721H407.5166L442.515,659.23553H423.90347l-30.75255-93.06571h-2.42819l-30.75057,93.06571H341.35664Z"/><path class="cls-1" d="M496.02634,600.56367h3.44175l38.23669-41.67646h19.42359v1.21311l-41.67844,45.9263v3.64131l46.53286,48.35449v1.21311h-19.4236l-42.688-44.10466h-3.84481v44.10466H480.248V517.6138h15.77834Z"/><path class="cls-1" d="M605.59376,613.91776q.60755,14.97223,9.30776,24.07451,8.69526,9.10427,24.278,9.10426a42.08387,42.08387,0,0,0,12.34053-1.61814,28.79231,28.79231,0,0,0,9.00151-4.45136,24.29014,24.29014,0,0,0,6.06951-6.5753,37.7634,37.7634,0,0,0,3.744-7.99191l14.97026,4.04634a44.3004,44.3004,0,0,1-15.67955,22.76063q-11.4307,8.802-30.85331,8.802a50.88657,50.88657,0,0,1-19.72588-3.74405,44.29673,44.29673,0,0,1-15.476-10.62163,49.30017,49.30017,0,0,1-10.11584-16.38686,58.38186,58.38186,0,0,1-3.6413-21.04174v-4.85441a51.0739,51.0739,0,0,1,3.74207-19.62513,46.55949,46.55949,0,0,1,10.4201-15.67955A48.81214,48.81214,0,0,1,619.65517,559.798a50.33294,50.33294,0,0,1,19.52436-3.74405q12.33461,0,21.342,4.55213a47.58556,47.58556,0,0,1,14.77071,11.22819,46.47693,46.47693,0,0,1,11.22818,29.1344v12.94906Zm33.58577-42.89154a35.70319,35.70319,0,0,0-12.44327,2.12393,31.42268,31.42268,0,0,0-17.19693,14.97223,33.07807,33.07807,0,0,0-3.54054,11.22818h64.74136a29.15281,29.15281,0,0,0-3.13749-11.734,28.70782,28.70782,0,0,0-7.08109-8.90273,32.72941,32.72941,0,0,0-9.91233-5.66448A33.25489,33.25489,0,0,0,639.17953,571.02622Z"/><path class="cls-1" d="M713.24115,558.88721h36.417v13.35212h2.4282a25.96267,25.96267,0,0,1,10.92392-12.23977,32.69761,32.69761,0,0,1,16.18534-3.94558q15.17376,0,24.48151,9.91432,9.30282,9.91332,9.91234,28.9309l-16.58839,2.42819q0-13.96163-6.678-20.13091a23.24433,23.24433,0,0,0-16.38686-6.17026,22.67621,22.67621,0,0,0-10.82316,2.42819,21.83632,21.83632,0,0,0-7.58688,6.67606,28.91987,28.91987,0,0,0-4.45136,9.91234,49.82749,49.82749,0,0,0-1.41662,12.139v42.48652h25.49113v14.5672H710.81493v-14.5672h23.06292V573.45441h-20.6367Z"/></svg>